<!-- Generated by IcoMoon.io -->
<svg version="1.1" xmlns="http://www.w3.org/2000/svg" viewBox="0 0 32 32">
<path d="M16 28.667h-8c-4.418 0-8-3.582-8-8 0-3.345 2.053-6.211 4.968-7.405-0.004 0.121-0.006 0.243-0.006 0.365 0 3.131 1.349 5.946 3.505 7.905l0.4 0.467 7.133 6.668z"></path>
<path fill-opacity="0.85" d="M16 28.667l-7.133-6.668-0.4-0.467c-2.156-1.959-3.505-4.774-3.505-7.905 0-0.122 0.002-0.244 0.006-0.365 0.935-0.384 1.959-0.595 3.032-0.595 4.418 0 8 3.582 8 8v7.999z"></path>
<path fill-opacity="0.65" d="M4.968 13.262c0.193-5.722 4.892-10.302 10.661-10.302 3.13 0 5.945 1.348 7.897 3.496l0.008 0.009-0.001 0.002c1.732 1.731 2.871 4.054 3.087 6.64-0.821-0.285-1.704-0.44-2.623-0.44-4.347 0-7.885 3.469-7.997 7.8v0.2c0-4.418-3.582-8-8-8-1.073 0-2.097 0.211-3.032 0.595z"></path>
<path fill-opacity="0.4" d="M16 28.667v-8.2c0.112-4.331 3.65-7.8 7.997-7.8 0.919 0 1.802 0.155 2.623 0.44 0.025 0.298 0.038 0.599 0.038 0.903 0 3.14-1.357 5.963-3.516 7.915l-0.009 0.008-7.133 6.733z"></path>
<path fill-opacity="0.5" d="M26.62 13.107c3.13 1.086 5.377 4.061 5.377 7.56 0 4.418-3.58 7.999-7.997 8l-8-0.001 7.142-6.741c2.159-1.952 3.516-4.775 3.516-7.915 0-0.304-0.013-0.605-0.038-0.903z"></path>
</svg>
