<svg xmlns="http://www.w3.org/2000/svg" viewBox="0 0 512 224"><path fill-rule="evenodd" clip-rule="evenodd" fill="#CCC" d="M470.764 56.91c-10.557 0-16.643 10.245-16.643 16.97 0 2.24 1.607 4.805 3.682 6.568 3.682 2.72 6.408 7.367 6.408 14.093 0 18.254-21.446 23.546-36.336 23.546-18.562 0-45.607-7.854-76.968-20.826-29.928-13.128-72.176-30.748-83.064-34.91-12.164-4.804-36.162-13.45-63.05-13.45-24.65 0-58.57 6.082-100.497 39.56C84.448 89.736 67.16 94.86 47 110.23c-19.206 14.415-24.007 30.27-24.007 37.637 0 13.293 9.758 20.174 17.122 20.174 6.086 0 12.164-3.518 16.323-8.002 3.524-3.85 3.524-7.367.485-9.765-6.243-4.327-8.482-11.374-8.482-17.942 0-17.3 20.005-31.392 39.53-31.392h.314c16.965 0 32.012 2.085 58.413 10.253 28.653 9.132 100.02 38.273 122.75 46.604 30.083 10.888 52.806 17.3 76.49 17.3 32.326 0 65.612-14.103 98.58-49.17 17.93-7.366 44.487-23.866 44.487-48.202.002-8.966-6.397-20.817-18.24-20.817zM363.704 159.4c-21.28 0-42.726-6.082-65.136-13.45-20.16-6.89-77.775-31.547-108.98-42.122-31.203-11.363-50.088-14.09-62.572-14.247 10.246-16.334 31.048-27.385 52.97-27.385h.322c18.085 0 36.005 3.683 54.567 9.93 22.088 7.526 87.38 37.475 111.064 46.598 30.89 12.014 51.85 15.534 74.094 12.66-11.2 20.172-32.488 28.017-56.33 28.017z"/></svg>