<svg aria-hidden="true" style="position: absolute; width: 0; height: 0; overflow: hidden;" version="1.1" xmlns="http://www.w3.org/2000/svg" xmlns:xlink="http://www.w3.org/1999/xlink">
<defs>
<symbol id="icon-facebook" viewBox="0 0 32 32">
<path d="M32 16c0-8.837-7.163-16-16-16s-16 7.163-16 16c0 7.504 5.166 13.8 12.135 15.529v-10.639h-3.299v-4.889h3.299v-2.107c0-5.446 2.465-7.97 7.811-7.97 1.014 0 2.763 0.199 3.478 0.397v4.432c-0.378-0.040-1.034-0.060-1.848-0.060-2.624 0-3.637 0.994-3.637 3.578v1.729h5.226l-0.898 4.889h-4.328v10.993c7.922-0.957 14.062-7.702 14.062-15.883z"></path>
</symbol>
<symbol id="icon-hatena" viewBox="0 0 32 32">
<path d="M12.941 23.87c-0.71 0.436-1.934 0.65-3.65 0.65h-2.54v-5.825h2.649c1.763 0 2.982 0.222 3.63 0.665 0.659 0.443 0.983 1.226 0.983 2.349 0 1.005-0.355 1.727-1.072 2.161zM6.751 8.581h1.561c1.804 0 3.015 0.204 3.64 0.609 0.617 0.408 0.932 1.11 0.932 2.112 0 0.964-0.335 1.643-0.997 2.041-0.671 0.391-1.894 0.588-3.685 0.588h-1.451zM19.302 16.952c-1.063-1.188-2.54-1.855-4.435-1.999 1.686-0.46 2.91-1.132 3.685-2.030 0.771-0.886 1.153-2.089 1.153-3.603 0-1.198-0.262-2.259-0.77-3.175-0.52-0.91-1.269-1.639-2.251-2.185-0.86-0.473-1.882-0.807-3.073-1.003-1.197-0.191-3.293-0.287-6.299-0.287h-7.311v26.663h7.532c3.026 0 5.208-0.106 6.542-0.309 1.333-0.21 2.452-0.562 3.357-1.046 1.12-0.591 1.974-1.432 2.571-2.512 0.6-1.084 0.898-2.334 0.898-3.763 0-1.977-0.533-3.566-1.599-4.751zM28.622 22.572c1.866 0 3.378 1.511 3.378 3.377s-1.512 3.378-3.378 3.378c-1.864 0-3.377-1.512-3.377-3.378s1.513-3.377 3.377-3.377zM25.69 2.667h5.866v17.775h-5.866z"></path>
</symbol>
<symbol id="icon-pocket" viewBox="0 0 32 32">
<path d="M29.025 2h-25.937c-1.684 0-3.088 1.268-3.088 2.921v9.425c0 8.543 7.186 15.654 16.056 15.654 8.814 0 15.944-7.11 15.944-15.654v-9.425c0-1.654-1.347-2.921-2.975-2.921zM24.767 13.913l-7.342 7.447c-0.378 0.465-0.972 0.64-1.404 0.64-0.54 0-1.080-0.175-1.512-0.64l-7.234-7.447c-0.756-0.873-0.864-2.327 0-3.258 0.81-0.815 2.16-0.931 2.969 0l5.777 5.992 5.885-5.992c0.756-0.931 2.105-0.815 2.861 0 0.756 0.931 0.756 2.385 0 3.258z"></path>
</symbol>
<symbol id="icon-x" viewBox="0 0 32 32">
<path d="M18.283 14.122l8.935-10.386h-2.117l-7.758 9.018-6.196-9.018h-7.147l9.37 13.636-9.37 10.891h2.117l8.193-9.523 6.544 9.523h7.147l-9.717-14.142zM15.383 17.493l-8.503-12.163h3.252l14.969 21.412h-3.252l-6.466-9.249z"></path>
</symbol>
<symbol id="icon-calendar" viewBox="0 0 32 32">
<path d="M10 12h4v4h-4zM16 12h4v4h-4zM22 12h4v4h-4zM4 24h4v4h-4zM10 24h4v4h-4zM16 24h4v4h-4zM10 18h4v4h-4zM16 18h4v4h-4zM22 18h4v4h-4zM4 18h4v4h-4zM26 0v2h-4v-2h-14v2h-4v-2h-4v32h30v-32h-4zM28 30h-26v-22h26v22z"></path>
</symbol>
<symbol id="icon-location" viewBox="0 0 32 32">
<path d="M16 0c-5.523 0-10 4.477-10 10 0 10 10 22 10 22s10-12 10-22c0-5.523-4.477-10-10-10zM16 16.125c-3.383 0-6.125-2.742-6.125-6.125s2.742-6.125 6.125-6.125 6.125 2.742 6.125 6.125-2.742 6.125-6.125 6.125zM12.125 10c0-2.14 1.735-3.875 3.875-3.875s3.875 1.735 3.875 3.875c0 2.14-1.735 3.875-3.875 3.875s-3.875-1.735-3.875-3.875z"></path>
</symbol>
<symbol id="icon-rss" viewBox="0 0 32 32">
<path d="M4.259 23.467c-2.35 0-4.259 1.917-4.259 4.252 0 2.349 1.909 4.244 4.259 4.244 2.358 0 4.265-1.895 4.265-4.244-0-2.336-1.907-4.252-4.265-4.252zM0.005 10.873v6.133c3.993 0 7.749 1.562 10.577 4.391 2.825 2.822 4.384 6.595 4.384 10.603h6.16c-0-11.651-9.478-21.127-21.121-21.127zM0.012 0v6.136c14.243 0 25.836 11.604 25.836 25.864h6.152c0-17.64-14.352-32-31.988-32z"></path>
</symbol>
<symbol id="icon-save" viewBox="0 0 32 32">
<path d="M18 8l-4-4h-14v26h32v-22h-14zM22 22h-4v4h-4v-4h-4v-4h4v-4h4v4h4v4z"></path>
</symbol>
<symbol id="icon-share" viewBox="0 0 32 32">
<path d="M8 20c0 0 1.838-6 12-6v6l12-8-12-8v6c-8 0-12 4.99-12 10zM22 24h-18v-12h3.934c0.315-0.372 0.654-0.729 1.015-1.068 1.374-1.287 3.018-2.27 4.879-2.932h-13.827v20h26v-8.395l-4 2.667v1.728z"></path>
</symbol>
<symbol id="icon-user" viewBox="0 0 32 32">
<path d="M18 22.082v-1.649c2.203-1.241 4-4.337 4-7.432 0-4.971 0-9-6-9s-6 4.029-6 9c0 3.096 1.797 6.191 4 7.432v1.649c-6.784 0.555-12 3.888-12 7.918h28c0-4.030-5.216-7.364-12-7.918z"></path>
</symbol>
</defs>
</svg>
