<svg version="1.1" xmlns="http://www.w3.org/2000/svg" viewBox="0 0 288 40">
	<path d="M16.7,7c-1,0.1-2.1,0.4-3.1,0.9c-0.8,0.4-1.8,0.9-2.8,1.7c-0.7,0.5-1.5,1.2-2.6,2c-1.5,1.3-2.6,2.7-3.2,4.1
		c-0.3,0.6-0.5,1.5-0.7,2.8c-0.1,0.7-0.4,1-0.8,1c-0.9,0-1.6-0.3-1.9-1c-0.1-0.1-0.2-0.8-0.5-1.9C1.1,16.3,1,16,1,15.7
		c0-0.3,0-0.5,0-0.5c0-2.3,1-4.7,3.1-7.1C5.7,6.2,7.7,4.5,10.2,3c2.1-1.3,3.5-2,4.3-2c0.5,0,1,0.1,1.3,0.2c0.2,0.1,0.5,0.3,1,0.6
		C16.9,2,17,2.3,17.1,2.7c0.1,0.3,0.1,0.7,0.1,1.1c0,0.6-0.1,1.3-0.3,2.1C16.9,6.2,16.8,6.5,16.7,7z M15,27.6v0.6
		c0,1.1-0.1,2-0.4,2.7c-0.4,1.1-1.2,1.6-2.2,1.6c-0.2,0-0.8-0.2-1.7-0.5c-1.3-0.5-2.4-1-3.3-1.7c-1.2-1-1.9-2.2-2-3.6
		c0-0.2,0-0.5,0-0.8c0-0.3,0-0.6,0-1c0-0.5,0-0.8,0.1-1.1c0.1-0.3,0.3-0.5,0.6-0.6c0.2-0.1,0.6,0.1,1.3,0.6s1.4,0.9,2.1,1.4
		c0.8,0.5,1.4,0.8,1.8,0.8c0.2,0,0.4-0.1,0.5-0.3c0,0,0-0.1,0-0.2c-0.2-1.6-0.5-3.2-0.6-4.8c-0.2-1.5-0.3-2.9-0.3-4.1v-6.1
		c0.4-0.2,0.7-0.5,1.1-0.8c0.3-0.2,0.6-0.3,0.9-0.3c0.3,0,0.7,0.1,1.1,0.4c0,0.4,0,0.8,0,1.1c0,2.6-0.1,4-0.1,4.2
		c0,1.5,0.1,3.3,0.3,5.3c0.1,1.4,0.3,3.1,0.6,4.9C14.9,26.9,15,27.6,15,27.6z"/>
	<path d="M30,26.5c0.1,0.1,0.2,0.4,0.2,0.9c0,0.5,0,1-0.1,1.5S30,30,29.9,30.5c0,0.7-0.2,1.2-0.7,1.5c-0.3,0.2-0.8,0.3-1.4,0.3
		c-0.1,0-0.3,0-0.4,0s-0.2,0-0.4,0h-7.6c-0.2-0.4-0.5-1.7-0.7-3.8c-0.3-2.1-0.5-4.3-0.7-6.6c-0.2-2.3-0.3-4.1-0.3-5.2
		c0-1.3,0.7-2.8,2-4.3c1.1-1.3,2.5-2.5,4.1-3.5c1.5-1,2.7-1.5,3.6-1.6c0,0,0.1,0,0.2,0c0.4,0,0.8,0.2,1,0.7c0.1,0.4,0.2,0.8,0.2,1.4
		c0,0.2,0,0.4,0,0.6c0,0.2,0,0.3,0,0.5c0,1.7-0.3,2.7-0.9,3.1c-1.1,0.6-2.2,1.2-3.3,1.8c-1,0.7-1.8,1.4-2.5,2
		c-0.8,0.8-1.2,1.3-1.2,1.6c0,0.2,0.1,0.2,0.4,0.2c1.5-0.6,2.8-1.2,4-1.6c1.2-0.5,1.8-0.7,1.9-0.7c0.5,0,0.8,0.3,1,1
		c0.1,0.4,0.2,1,0.2,1.8v0.5c0,1.3-0.2,2.1-0.6,2.7c-0.3,0.4-1,0.8-2,1.2c-2.2,0.8-3.4,1.3-3.8,1.5c0,0.2-0.1,0.4-0.1,0.6
		c0,0.1,0,0.2,0,0.3c1,0,2-0.1,3-0.1c1,0,1.8,0,2.2,0c0.9,0,1.6,0,2.1,0.1C29.7,26.3,29.9,26.3,30,26.5z"/>
	<path d="M41.4,21.5v0.4c0,0.7,0,1.2-0.1,1.5c0,0.4-0.1,0.7-0.3,0.9c-1.6,0.5-2.9,1-3.9,1.3s-1.6,0.7-1.9,1c0,0.1,0,0.2,0,0.2
		c0,0.3,0,0.7,0.1,1.3c0.1,1.6,0.2,2.6,0.2,3c0,0.7-0.1,1.1-0.3,1.2c-0.2,0.1-0.4,0.2-0.7,0.2c-0.4,0-0.7-0.1-1.1-0.3
		c-0.3-0.2-0.6-0.4-0.7-0.7s-0.2-0.8-0.3-1.6c-0.1-1.5-0.2-2.8-0.3-4c-0.1-1.2-0.1-2.2-0.2-3.1c-0.2-3.2-0.4-4.8-0.4-5
		c-0.1-1.9-0.2-3.2-0.2-3.8v-0.5c0-0.5,0-0.9,0-1.3c0-0.4,0.1-0.7,0.2-1.1c0.5-0.6,1.7-1.4,3.6-2.4c1.9-1,3.2-1.5,3.7-1.5
		c0.7,0,1.1,0.5,1.4,1.5c0.1,0.6,0.1,1.1,0.2,1.7c0,0.2,0,0.5,0,0.7c0,0.2,0,0.4,0,0.6c0,0.6-0.1,1.1-0.2,1.4
		c-0.2,0.4-1.2,1-2.7,1.9c-1.1,0.6-2.1,1.3-3,1.9l0.1,3.3c0.5,0,1.3-0.2,2.4-0.7c0.7-0.3,1.5-0.7,2.2-1c0.1,0,0.3-0.1,0.4-0.1
		c0.5,0,0.9,0.4,1.2,1.1C41.2,20.2,41.4,20.8,41.4,21.5z"/>
	<path d="M52.7,21.5v0.4c0,0.7,0,1.2-0.1,1.5c0,0.4-0.1,0.7-0.3,0.9c-1.6,0.5-2.9,1-3.9,1.3s-1.6,0.7-1.9,1c0,0.1,0,0.2,0,0.2
		c0,0.3,0,0.7,0.1,1.3c0.1,1.6,0.2,2.6,0.2,3c0,0.7-0.1,1.1-0.3,1.2c-0.2,0.1-0.4,0.2-0.7,0.2c-0.4,0-0.7-0.1-1.1-0.3
		c-0.3-0.2-0.6-0.4-0.7-0.7s-0.2-0.8-0.3-1.6c-0.1-1.5-0.2-2.8-0.3-4c-0.1-1.2-0.1-2.2-0.2-3.1c-0.2-3.2-0.4-4.8-0.4-5
		c-0.1-1.9-0.2-3.2-0.2-3.8v-0.5c0-0.5,0-0.9,0-1.3c0-0.4,0.1-0.7,0.2-1.1c0.5-0.6,1.7-1.4,3.6-2.4c1.9-1,3.2-1.5,3.7-1.5
		c0.7,0,1.1,0.5,1.4,1.5c0.1,0.6,0.1,1.1,0.2,1.7c0,0.2,0,0.5,0,0.7c0,0.2,0,0.4,0,0.6c0,0.6-0.1,1.1-0.2,1.4
		c-0.2,0.4-1.2,1-2.7,1.9c-1.1,0.6-2.1,1.3-3,1.9l0.1,3.3c0.5,0,1.3-0.2,2.4-0.7c0.7-0.3,1.5-0.7,2.2-1c0.1,0,0.3-0.1,0.4-0.1
		c0.5,0,0.9,0.4,1.2,1.1C52.6,20.2,52.7,20.8,52.7,21.5z"/>
	<path d="M67.6,32.6c-0.9-0.1-1.9-0.2-2.8-0.3c-0.9-0.1-2-0.1-3.2-0.1c-1.2,0-2.7,0-4.3,0c-0.4-1.6-0.7-3.2-0.9-5
		c-0.2-1.4-0.3-2.7-0.4-3.8c-0.1-1.1-0.1-2-0.1-2.7c-0.5-0.1-1-0.4-1.3-1c-0.5-0.8-0.8-2-0.8-3.7c0-2.2,0.9-4.3,2.6-6.2
		c1.6-1.7,3.2-2.6,4.8-2.6c1.5,0,2.7,0.4,3.5,1.1c0.7,0.6,1.1,1.5,1.4,2.7c0.1,0.7,0.2,1.8,0.2,3.1c0,1.3-0.2,2.6-0.6,3.8
		c-0.4,1.2-1,2.5-1.8,3.8c-0.7,1.1-1.6,2.4-2.9,4.1c0,0.5,1.1,0.8,3.3,0.9c2.2,0.1,3.3,0.3,3.3,0.4L67.6,32.6z M62.9,14.2
		c0-0.3-0.1-0.5-0.4-0.6c-0.3-0.2-0.6-0.2-0.9-0.2c-0.1,0-0.2,0-0.2,0c-0.1,0-0.1,0-0.3,0.1c-0.9,0.2-1.7,0.7-2.4,1.3
		c-0.6,0.5-1.1,1.2-1.6,2.1c0.4,0.4,0.7,1,0.9,1.8c0.1,0.9,0.2,1.8,0.3,2.7c0.4-0.6,1-1.4,1.9-2.6s1.5-1.9,1.9-2.4
		C62.7,15.6,62.9,14.8,62.9,14.2z"/>
	<path d="M81.2,26.5c0.1,0.1,0.2,0.4,0.2,0.9c0,0.5,0,1-0.1,1.5s-0.1,1.1-0.2,1.7c0,0.7-0.2,1.2-0.7,1.5c-0.3,0.2-0.8,0.3-1.4,0.3
		c-0.1,0-0.3,0-0.4,0s-0.2,0-0.4,0h-7.6c-0.2-0.4-0.5-1.7-0.7-3.8c-0.3-2.1-0.5-4.3-0.7-6.6c-0.2-2.3-0.3-4.1-0.3-5.2
		c0-1.3,0.7-2.8,2-4.3c1.1-1.3,2.5-2.5,4.1-3.5c1.5-1,2.7-1.5,3.6-1.6c0,0,0.1,0,0.2,0c0.4,0,0.8,0.2,1,0.7C79.9,8.3,80,8.7,80,9.3
		c0,0.2,0,0.4,0,0.6c0,0.2,0,0.3,0,0.5c0,1.7-0.3,2.7-0.9,3.1c-1.1,0.6-2.2,1.2-3.3,1.8c-1,0.7-1.8,1.4-2.5,2
		C72.4,18,72,18.5,72,18.8c0,0.2,0.1,0.2,0.4,0.2c1.5-0.6,2.8-1.2,4-1.6c1.2-0.5,1.8-0.7,1.9-0.7c0.5,0,0.8,0.3,1,1
		c0.1,0.4,0.2,1,0.2,1.8v0.5c0,1.3-0.2,2.1-0.6,2.7c-0.3,0.4-1,0.8-2,1.2c-2.2,0.8-3.4,1.3-3.8,1.5c0,0.2-0.1,0.4-0.1,0.6
		c0,0.1,0,0.2,0,0.3c1,0,2-0.1,3-0.1c1,0,1.8,0,2.2,0c0.9,0,1.6,0,2.1,0.1C80.9,26.3,81.2,26.3,81.2,26.5z"/>
	<path d="M97.2,8.1c0.1,0.9,0.2,1.7,0.2,2.5c0,1.7-0.3,3.4-1,5c-0.5,1.2-1.2,2.4-2.1,3.5c-0.5,0.6-1.1,1.3-1.8,1.9
		c0,0.6,0,1.3,0.1,2.2c0.1,2,0.1,3.4,0.1,4.1c0,0.9,0,1.7-0.1,2.4s-0.1,1.6-0.3,2.6h-3.3c0-1.2,0-2.7-0.1-4.6
		c-0.1-1.9-0.2-3.4-0.3-4.5c-0.4,0.1-0.8,0.2-1.1,0.2c-0.3,0-0.7,0.1-1,0.1c-1.8,0-3.1-0.7-3.9-2.2c-0.6-1.2-0.9-2.9-0.9-5.1
		c0-0.7,0-1.4,0.1-2.1c0.1-0.7,0.1-1.5,0.2-2.4c0.3-0.4,0.6-0.7,1.1-0.9c0.5-0.2,1-0.3,1.6-0.3c0.5,0,1,0.1,1.5,0.3
		c-0.2,1-0.4,1.7-0.5,2.1c-0.1,0.8-0.2,1.5-0.2,2.1c0,0.6,0.1,1.1,0.3,1.5c0.2,0.4,0.6,0.5,1.1,0.5c0.1,0,0.3,0,0.5-0.1
		c1.7-0.4,3.2-1.4,4.5-3.1c1.4-1.7,2-3.3,2-4.9c0-0.3,0-0.7-0.1-1c0.6-0.3,1.2-0.5,1.8-0.5c0.4,0,0.8,0.1,1,0.3S97.2,7.8,97.2,8.1z"
		/>
	<path d="M111.9,18.9c0,0.2,0,0.4,0,0.8c0,0.3,0,0.6,0,0.8c0,0.4,0,0.8-0.1,1c0,0.3-0.1,0.5-0.3,0.7c-0.3,0.2-1.1,0.5-2.4,0.9
		c-2.1,0.6-3.2,0.9-3.3,0.9c-1.1,0.4-1.9,0.7-2.1,1c0,0.4,0,0.8,0.1,1.2c0,0.5,0,1,0,1.7c0,1.3,0,2.3-0.1,3.2
		c-0.1,0.8-0.2,1.2-0.5,1.2c-0.8,0-1.4-0.2-1.7-0.7c-0.3-0.4-0.5-1.4-0.7-2.9c-0.2-1.5-0.3-3.1-0.5-4.8c0,0-0.1-1.2-0.3-3.3
		c-0.3-3.7-0.4-5.8-0.5-6.4c-0.2-2.5-0.2-4.1-0.2-5V8.6c0-0.5,0-1,0.1-1.5c0-0.5,0.1-0.9,0.3-1.3c0.4-0.5,1.3-1.2,2.8-2
		c1.2-0.7,2.5-1.3,3.9-1.9c1.4-0.6,2.4-0.9,2.8-0.9c0.6,0,1.1,0.4,1.3,1.1c0.1,0.8,0.2,1.7,0.3,2.5c0,0.3,0,0.5,0,0.8
		c0,0.2,0,0.5,0,0.7c0,0.3,0,0.6,0,0.9c0,0.3-0.1,0.5-0.2,0.7c-0.3,0.5-0.8,0.9-1.5,1.3c-0.9,0.4-1.7,0.9-2.6,1.3
		c-1.4,0.7-2.6,1.5-3.8,2.3l0.2,5.2c0.1,0,0.2,0,0.3,0c0.7,0,1.9-0.3,3.4-0.9c1.1-0.4,2.2-0.9,3.3-1.3c0.1,0,0.3-0.1,0.4-0.1
		c0.5,0,0.9,0.4,1.2,1.2C111.8,17.4,111.9,18.1,111.9,18.9z"/>
	<path d="M127.6,32.6c-0.9-0.1-1.9-0.2-2.8-0.3c-0.9-0.1-2-0.1-3.2-0.1c-1.2,0-2.7,0-4.3,0c-0.4-1.6-0.7-3.2-0.9-5
		c-0.2-1.4-0.3-2.7-0.4-3.8c-0.1-1.1-0.1-2-0.1-2.7c-0.5-0.1-1-0.4-1.3-1c-0.5-0.8-0.8-2-0.8-3.7c0-2.2,0.9-4.3,2.6-6.2
		c1.6-1.7,3.2-2.6,4.8-2.6c1.5,0,2.7,0.4,3.5,1.1c0.7,0.6,1.1,1.5,1.4,2.7c0.1,0.7,0.2,1.8,0.2,3.1c0,1.3-0.2,2.6-0.6,3.8
		c-0.4,1.2-1,2.5-1.8,3.8c-0.7,1.1-1.6,2.4-2.9,4.1c0,0.5,1.1,0.8,3.3,0.9c2.2,0.1,3.3,0.3,3.3,0.4L127.6,32.6z M122.9,14.2
		c0-0.3-0.1-0.5-0.4-0.6c-0.3-0.2-0.6-0.2-0.9-0.2c-0.1,0-0.2,0-0.2,0c-0.1,0-0.1,0-0.3,0.1c-0.9,0.2-1.7,0.7-2.4,1.3
		c-0.6,0.5-1.1,1.2-1.6,2.1c0.4,0.4,0.7,1,0.9,1.8c0.1,0.9,0.2,1.8,0.3,2.7c0.4-0.6,1-1.4,1.9-2.6s1.5-1.9,1.9-2.4
		C122.6,15.6,122.9,14.8,122.9,14.2z"/>
	<path d="M141,28.4c0.2,0.9,0.3,1.5,0.3,1.7c0,0.3,0.1,0.5,0.1,0.8c0,0.4-0.1,0.6-0.3,0.8c-0.2,0.1-0.7,0.2-1.3,0.2
		c-1,0-1.7-0.5-2-1.5c-0.2-1.5-0.4-2.7-0.6-3.6c-1.3,0.5-2.2,0.8-2.8,1.1c-0.8,0.4-1.3,0.6-1.5,0.9c0,0.3,0,0.7,0,1.1
		c0,0.4,0,0.6,0,0.7c0,0.4,0,0.7,0,0.9c0,0.2-0.1,0.5-0.1,1H130c-0.1-0.7-0.3-1.4-0.4-2.2c-0.1-0.6-0.1-1.5-0.1-2.6
		c0-1.1,0.2-3,0.6-5.8c0.5-3.4,1.1-6.3,1.8-8.7c0.9-3.2,2-5.1,3.1-5.8c0.8,0,1.4,0.6,2,1.7c0.4,0.9,0.8,2.2,1.2,4.1
		c0.3,1.5,0.6,3,0.9,4.5c0.4,2.1,0.8,4,1.1,5.9C140.5,25.3,140.8,26.9,141,28.4z M135.4,20.6c0-0.2,0-0.7-0.1-1.4
		c-0.1-0.7-0.2-1.4-0.3-2l-0.6,0c-0.2,0.6-0.4,1.2-0.5,2c-0.2,0.8-0.3,1.5-0.4,2.3C134.8,21.2,135.4,20.9,135.4,20.6z"/>
	<path d="M158.9,28.8c0,0.2,0,0.4,0,0.5s0,0.3,0,0.5c0,0.4,0,0.8-0.1,1.1c0,0.3-0.2,0.9-0.3,1.6h-2.2c-0.4-0.5-1.2-1.5-2.5-3
		c-1.5-1.7-2.9-3.3-4.1-4.6c-1.6-1.7-2.9-3-3.8-3.8c0,1.5,0.1,3,0.2,4.5c0.1,1.5,0.3,2.9,0.4,4.4c0,0.4,0,0.7-0.1,0.9
		c-0.1,0.2-0.2,0.3-0.5,0.4c-0.2,0.1-0.5,0.1-0.8,0.1c-0.5,0-1-0.1-1.4-0.4c-0.2-0.6-0.3-1.2-0.4-1.9c-0.2-1-0.3-2.5-0.4-4.4
		c-0.1-2.4-0.2-5.1-0.2-8.3c0-0.5,0.1-1.6,0.2-3.2c0.1-1.6,0.2-3,0.3-4c0.2-0.1,0.4-0.1,0.7-0.2c0.2,0,0.4-0.1,0.6-0.1
		c0.3,0,0.6,0,0.9,0.1c0.3,0.1,0.5,0.2,0.7,0.3c0.2,0.3,0.3,0.7,0.3,1.4c0,0.6,0.1,1,0.1,1.2c0.3,0.3,0.9,0.9,1.7,1.9
		c1.4,1.5,2.3,2.5,2.7,2.9c0.8,0.8,1.6,1.8,2.6,3c-0.2-1.6-0.3-2.8-0.3-3.8c-0.1-1-0.1-1.8-0.1-2.6c0-0.6,0.1-1.5,0.2-2.9
		c0.2-1.8,0.4-3.1,0.7-3.9c0.2,0,0.4,0,0.6,0c0.5-0.1,0.8-0.1,0.9-0.1c0.3,0,0.5,0.1,0.7,0.2c0.2,0.1,0.4,0.3,0.6,0.6
		c0,0.3,0,1-0.1,2.1c-0.1,1.1-0.1,2.2-0.1,3.1c0,0.8,0,1.5,0,2.3c0,0.7,0.1,1.5,0.2,2.5c0.2,1.9,0.5,3.7,0.9,5.3
		c0.3,1.1,0.6,2.1,0.9,3.2C158.8,26.9,158.9,27.8,158.9,28.8z"/>
	<path d="M174.5,28.8c0,0.9-0.1,1.7-0.4,2.4c-0.1,0.3-0.4,0.7-0.6,1h-9.8c-1.1-0.7-2-2-2.5-3.8c-0.5-1.7-0.8-3.8-0.8-6.4
		c0-1.6,0.2-3.4,0.6-5.3c0.5-2.5,1.2-4.6,2.1-6.1c1.1-1.9,2.5-2.9,4.1-2.9c1.3,0,2.3,0.5,3.1,1.4c0.7,0.8,1.2,1.8,1.5,3.1
		c0.3,1,0.4,2.1,0.4,3.3c0,1.4,0,2.6,0,3.6c0,1-0.2,2-0.4,3.1c-0.4,0-0.8,0.1-1.1,0.2c-0.1,0-0.2,0.1-0.4,0.2
		c-0.7,0-1.2-0.4-1.5-1.1c-0.2-0.5-0.3-1.4-0.3-2.5c0-0.4,0-0.9,0-1.3c0-0.4,0-0.8,0-1.3c0-0.7-0.1-1.3-0.2-1.6
		c-0.1-0.4-0.4-0.6-0.8-0.6c-0.3,0-0.8,0.3-1.4,1c-0.7,0.8-1.3,1.7-1.7,2.8c-0.6,1.3-0.8,2.7-0.8,4.1c0,1.2,0.2,2.2,0.5,2.9
		c0.4,0.8,1.1,1.3,2.1,1.5h7.5c0.2,0.4,0.5,0.7,0.7,1.1C174.4,27.6,174.5,28.1,174.5,28.8z"/>
	<path d="M188.1,26.5c0.1,0.1,0.2,0.4,0.2,0.9c0,0.5,0,1-0.1,1.5s-0.1,1.1-0.2,1.7c0,0.7-0.2,1.2-0.7,1.5c-0.3,0.2-0.8,0.3-1.4,0.3
		c-0.1,0-0.3,0-0.4,0s-0.2,0-0.4,0h-7.6c-0.2-0.4-0.5-1.7-0.7-3.8c-0.3-2.1-0.5-4.3-0.7-6.6c-0.2-2.3-0.3-4.1-0.3-5.2
		c0-1.3,0.7-2.8,2-4.3c1.1-1.3,2.5-2.5,4.1-3.5c1.5-1,2.7-1.5,3.6-1.6c0,0,0.1,0,0.2,0c0.4,0,0.8,0.2,1,0.7c0.1,0.4,0.2,0.8,0.2,1.4
		c0,0.2,0,0.4,0,0.6c0,0.2,0,0.3,0,0.5c0,1.7-0.3,2.7-0.9,3.1c-1.1,0.6-2.2,1.2-3.3,1.8c-1,0.7-1.8,1.4-2.5,2
		c-0.8,0.8-1.2,1.3-1.2,1.6c0,0.2,0.1,0.2,0.4,0.2c1.5-0.6,2.8-1.2,4-1.6c1.2-0.5,1.8-0.7,1.9-0.7c0.5,0,0.8,0.3,1,1
		c0.1,0.4,0.2,1,0.2,1.8v0.5c0,1.3-0.2,2.1-0.6,2.7c-0.3,0.4-1,0.8-2,1.2c-2.2,0.8-3.4,1.3-3.8,1.5c0,0.2-0.1,0.4-0.1,0.6
		c0,0.1,0,0.2,0,0.3c1,0,2-0.1,3-0.1c1,0,1.8,0,2.2,0c0.9,0,1.6,0,2.1,0.1C187.7,26.3,188,26.3,188.1,26.5z"/>
	<path d="M204.5,24.2c0,3.2-0.6,5.3-1.8,6.5c-1.1,1.1-2.9,1.6-5.6,1.6h-5.4c0-0.2,0-1,0.1-2.4s0.2-2.7,0.4-4.2
		c0.4-0.4,1.1-0.8,2-1.1c0.3-0.1,0.7-0.2,1.3-0.3c0.3,0,0.6,0.3,0.8,0.8s0.7,0.8,1.4,0.8c0.1,0,0.3,0,0.4,0c0.2,0,0.4,0,0.6,0
		c0.3,0,0.6,0,0.8-0.1s0.4-0.2,0.4-0.3c0.1-0.4-0.5-0.9-1.6-1.2c-1.2-0.4-2.6-0.6-4.3-0.6c-0.4,0-0.7,0-1.1,0
		c-0.3,0-0.6,0.1-0.7,0.1c-1.4-0.3-2.3-0.7-2.7-1.1c-0.7-0.8-1-2.4-1-4.8c0-2.3,0.7-4.3,2.1-6c1.1-1.3,2.5-2.5,4.2-3.3
		c1.3-0.7,2.3-1,2.8-1c0.4,0,0.8,0.3,1.3,1c0.5,0.7,0.8,1.3,0.8,1.9c0,0.1,0,0.3,0,0.4c-0.1,0.7-0.2,1.6-0.5,2.8
		c-1.7,0-3.2,0.4-4.4,1.2c-1.1,0.7-1.8,1.5-1.9,2.4c0,0.2,0.1,0.3,0.3,0.4s0.6,0.1,1.1,0.1c0.2,0,0.5,0,1,0s0.8,0,1.1,0
		c1.5,0,2.6,0.1,3.5,0.3c1.3,0.3,2.3,0.9,3.1,1.8C204.1,20.8,204.5,22.3,204.5,24.2z"/>
	<path d="M220.1,28.8c0,0.9-0.1,1.7-0.4,2.4c-0.1,0.3-0.4,0.7-0.6,1h-9.8c-1.1-0.7-2-2-2.5-3.8c-0.5-1.7-0.8-3.8-0.8-6.4
		c0-1.6,0.2-3.4,0.6-5.3c0.5-2.5,1.2-4.6,2.1-6.1c1.1-1.9,2.5-2.9,4.1-2.9c1.3,0,2.3,0.5,3.1,1.4c0.7,0.8,1.2,1.8,1.5,3.1
		c0.3,1,0.4,2.1,0.4,3.3c0,1.4,0,2.6,0,3.6c0,1-0.2,2-0.4,3.1c-0.4,0-0.8,0.1-1.1,0.2c-0.1,0-0.2,0.1-0.4,0.2
		c-0.7,0-1.2-0.4-1.5-1.1c-0.2-0.5-0.3-1.4-0.3-2.5c0-0.4,0-0.9,0-1.3c0-0.4,0-0.8,0-1.3c0-0.7-0.1-1.3-0.2-1.6
		c-0.1-0.4-0.4-0.6-0.8-0.6c-0.3,0-0.8,0.3-1.4,1c-0.7,0.8-1.3,1.7-1.7,2.8c-0.6,1.3-0.8,2.7-0.8,4.1c0,1.2,0.2,2.2,0.5,2.9
		c0.4,0.8,1.1,1.3,2.1,1.5h7.5c0.2,0.4,0.5,0.7,0.7,1.1C220,27.6,220.1,28.1,220.1,28.8z"/>
	<path d="M233.4,19.9c0,2-0.1,3.6-0.2,4.9c-0.3,2.2-0.8,4-1.5,5.3c-0.9,1.6-2.2,2.5-3.8,2.5c-1.8,0-3.2-0.7-4.2-2
		c-0.8-1.1-1.4-2.5-1.8-4.4c-0.2-1.3-0.3-2.8-0.3-4.6c0-3.7,0.5-6.8,1.4-9.3c0.7-1.8,1.5-3.2,2.5-4.2c0.7-0.7,1.2-1,1.5-1
		c0.9,0,1.8,0.5,2.8,1.5c1.1,1.1,1.9,2.6,2.6,4.4C233.1,15.1,233.4,17.4,233.4,19.9z M230.2,21.1c0-1.2-0.1-2.3-0.4-3.4
		s-0.6-1.7-0.9-1.7c0,0-0.1,0-0.2,0.1c-0.5,1-1.2,1.5-2,1.5c-0.5,0-1-0.2-1.4-0.5c-0.2,0.1-0.3,0.6-0.5,1.3
		c-0.1,0.7-0.2,1.4-0.2,2.1c0,0.1,0,0.3,0,0.4c0,0.1,0,0.2,0,0.2c0.2,1.5,0.6,2.7,1.2,3.6c0.6,0.9,1.2,1.4,1.8,1.4
		c1,0,1.7-0.7,2.1-2C230,23.2,230.2,22.3,230.2,21.1z"/>
	<path d="M240.5,28.1c0,0.4-0.2,1-0.5,1.7c-0.4,0.9-0.8,1.5-1.3,1.7c-0.3,0-0.7,0.1-1.2,0.1s-1,0-1.3,0c-0.2,0-0.4-0.1-0.6-0.2
		s-0.2-0.3-0.2-0.5c0-0.4,0.2-1,0.7-1.9c0.4-0.8,0.7-1.3,1-1.5c0.1,0,0.3-0.1,0.7-0.1c0.4,0,0.8,0,1.1,0c0.6,0,0.9,0,1.1,0
		C240.3,27.5,240.5,27.7,240.5,28.1z"/>
	<path d="M254.7,19.9c0,2-0.1,3.6-0.2,4.9c-0.3,2.2-0.8,4-1.5,5.3c-0.9,1.6-2.2,2.5-3.8,2.5c-1.8,0-3.2-0.7-4.2-2
		c-0.8-1.1-1.4-2.5-1.8-4.4c-0.2-1.3-0.3-2.8-0.3-4.6c0-3.7,0.5-6.8,1.4-9.3c0.7-1.8,1.5-3.2,2.5-4.2c0.7-0.7,1.2-1,1.5-1
		c0.9,0,1.8,0.5,2.8,1.5c1.1,1.1,1.9,2.6,2.6,4.4C254.3,15.1,254.7,17.4,254.7,19.9z M251.4,21.1c0-1.2-0.1-2.3-0.4-3.4
		s-0.6-1.7-0.9-1.7c0,0-0.1,0-0.2,0.1c-0.5,1-1.2,1.5-2,1.5c-0.5,0-1-0.2-1.4-0.5c-0.2,0.1-0.3,0.6-0.5,1.3
		c-0.1,0.7-0.2,1.4-0.2,2.1c0,0.1,0,0.3,0,0.4c0,0.1,0,0.2,0,0.2c0.2,1.5,0.6,2.7,1.2,3.6c0.6,0.9,1.2,1.4,1.8,1.4
		c1,0,1.7-0.7,2.1-2C251.3,23.2,251.4,22.3,251.4,21.1z"/>
	<path d="M269.9,32.6c-0.9-0.1-1.9-0.2-2.8-0.3c-0.9-0.1-2-0.1-3.2-0.1c-1.2,0-2.7,0-4.3,0c-0.4-1.6-0.7-3.2-0.9-5
		c-0.2-1.4-0.3-2.7-0.4-3.8c-0.1-1.1-0.1-2-0.1-2.7c-0.5-0.1-1-0.4-1.3-1c-0.5-0.8-0.8-2-0.8-3.7c0-2.2,0.9-4.3,2.6-6.2
		c1.6-1.7,3.2-2.6,4.8-2.6c1.5,0,2.7,0.4,3.5,1.1c0.7,0.6,1.1,1.5,1.4,2.7c0.1,0.7,0.2,1.8,0.2,3.1c0,1.3-0.2,2.6-0.6,3.8
		c-0.4,1.2-1,2.5-1.8,3.8c-0.7,1.1-1.6,2.4-2.9,4.1c0,0.5,1.1,0.8,3.3,0.9s3.3,0.3,3.3,0.4L269.9,32.6z M265.2,14.2
		c0-0.3-0.1-0.5-0.4-0.6c-0.3-0.2-0.6-0.2-0.9-0.2c-0.1,0-0.2,0-0.2,0c-0.1,0-0.1,0-0.3,0.1c-0.9,0.2-1.7,0.7-2.4,1.3
		c-0.6,0.5-1.1,1.2-1.6,2.1c0.4,0.4,0.7,1,0.8,1.8c0.1,0.9,0.2,1.8,0.3,2.7c0.4-0.6,1-1.4,1.9-2.6c0.9-1.1,1.5-1.9,1.9-2.4
		C264.9,15.6,265.2,14.8,265.2,14.2z"/>
	<path d="M286.6,29.1c0,2.1,0,3.6,0,4.6c0,1-0.1,1.9-0.1,2.6s-0.1,1.1-0.1,1.1c-0.4,0.4-0.7,0.7-1.1,0.8s-0.7,0.2-1.2,0.2
		c-0.1-0.5-0.2-1.5-0.2-3c0-1.5-0.1-3-0.1-4.4c0-1.5-0.1-2.4-0.1-2.7c-0.3,1.1-0.9,2-1.8,2.9c-1.1,1-2.3,1.5-3.7,1.5
		c-1.7,0-3.2-0.7-4.3-2c-0.9-1.1-1.6-2.6-2.1-4.5c-0.4-1.6-0.5-3.3-0.5-5.1c0-1,0.2-2.4,0.5-4.1c0.5-2.6,1.1-4.7,2-6.3
		c1.2-2.2,2.7-3.3,4.5-3.3c1.2,0,2.1,0.3,2.8,0.9c0.6,0.5,1.1,1.2,1.4,2.2c0.2,0.6,0.4,1.6,0.7,3c0.1,0.4,0.1,0.8,0.2,1.4
		c0,0.5,0.1,1,0.1,1.5c0,0.7,0,1.3-0.1,1.8c-0.1,0.5-0.2,0.7-0.4,0.8c1.1,0.4,2,1.3,2.6,2.8c0.5,1.1,0.8,2.6,0.9,4.3
		C286.6,26.7,286.6,27.7,286.6,29.1z M281.8,18.6c-0.5-0.2-0.9-0.8-1.1-1.6c-0.2-0.7-0.5-1.3-0.7-2c-0.3-0.7-0.8-1-1.4-1
		c-0.8,0-1.5,0.6-2.1,1.7c-0.5,0.9-0.9,2.1-1.2,3.5c-0.3,1.2-0.4,2.1-0.4,2.7c0,1.1,0.2,1.9,0.7,2.6c0.6,0.9,1.5,1.3,2.7,1.3
		c0.5,0,1-0.2,1.5-0.5c0.6-0.4,1-0.7,1-1.1l-3.9-0.4l-0.1-4.2c0.5-0.4,1.1-0.7,2-0.9C279.4,18.7,280.5,18.6,281.8,18.6z"/>
</svg>
