<svg xmlns="http://www.w3.org/2000/svg" viewBox="0 0 128 128">
  <style>
  :root { color-scheme: light dark }
  @media (prefers-color-scheme: dark) {
    circle { fill: #fff }
    path { fill: #231f20 }
  }
  </style>
  <circle cx="64" cy="64" r="62" fill="#231f20" />
  <path d="M45.832 84.859q-3.2 0-6.08-.812t-5.142-2.44a12.1 12.1 0 0 1-3.58-4.028Q29.71 75.177 29.633 72q0-.505.343-.868a1.14 1.14 0 0 1 .868-.364h7.56q.806 0 1.218.388.414.388.679 1.173.33 1.547 1.11 2.534a4.57 4.57 0 0 0 1.977 1.449q1.197.462 2.723.462 2.794 0 4.309-1.82t1.516-5.341V53.464H33.792q-.596 0-1.001-.406a1.36 1.36 0 0 1-.406-1.001v-5.551q0-.596.406-1.001.405-.406 1.001-.406h27.104q.615 0 1.022.406.406.405.406 1.022v23.387q0 4.857-2.111 8.2-2.11 3.343-5.824 5.044t-8.557 1.701M71.193 84.299q-.596 0-1.002-.406a1.36 1.36 0 0 1-.406-1.001l.001-36.365q0-.617.405-1.022a1.36 1.36 0 0 1 1.001-.406h25.746q.617 0 1.022.406.406.405.406 1.022v5.635q0 .594-.406 1.001-.405.406-1.022.406H79.683v8.239h16.135q.617 0 1.022.406.406.405.406 1.022v5.6q0 .594-.406 1.001-.405.406-1.022.406H79.683v12.649q0 .594-.406 1.001-.405.405-1.022.406h-7.063Z" fill="#fff" />
</svg>